<svg xmlns="http://www.w3.org/2000/svg" id="layer" data-name="layer" viewBox="0 0 320 127.68"><defs><style>.cls-1{fill:#0530ad}</style></defs><g id="layer1" data-name="layer1"><path d="M0 118.79h62.22v8.89H0zM0 101.82h62.22v8.89H0zM17.78 84.85h26.67v8.89H17.78zM17.78 67.88h26.67v8.89H17.78zM17.78 50.91h26.67v8.89H17.78zM17.78 33.94h26.67v8.89H17.78zM0 16.97h62.22v8.89H0zM0 0h62.22v8.89H0zM71.11 110.71h94.84c1.61-2.78 2.81-5.77 3.58-8.89H71.11v8.89ZM158.53 67.88H88.89v8.89h77.05a34.233 34.233 0 0 0-7.41-8.89ZM88.89 50.91v8.89h69.64c2.96-2.52 5.47-5.52 7.42-8.89H88.89ZM165.95 16.97H71.11v8.89h98.42c-.76-3.12-1.97-6.11-3.58-8.89ZM136.57 0H71.12v8.89h88.35A33.856 33.856 0 0 0 136.57 0ZM88.89 33.94h26.67v8.89H88.89zM140.61 42.83h28.71c.79-2.9 1.19-5.89 1.19-8.89h-29.9v8.89ZM88.89 84.85h26.67v8.89H88.89zM140.61 84.85v8.89h29.9c0-3-.4-5.99-1.19-8.89h-28.71ZM71.11 127.59l65.45.09c8.48.02 16.65-3.15 22.9-8.89H71.11v8.8ZM248.88 127.68l3.1-8.89h-6.18l3.08 8.89zM242.96 110.71h11.86l3.12-8.89h-18.1l3.12 8.89zM237.01 93.74h23.76l3.12-8.89h-30.01l3.13 8.89zM231.05 76.77h35.68l3.12-8.89h-41.92l3.12 8.89zM195.56 42.83h48.02l-3.09-8.89h-44.93v8.89zM260.1 25.86H320v-8.89h-56.81l-3.09 8.89zM269.09 0 266 8.89h54V0h-50.91zM177.78 118.79h44.44v8.89h-44.44zM177.78 101.82h44.44v8.89h-44.44zM195.56 84.85h26.67v8.89h-26.67zM195.56 67.88h26.67v8.89h-26.67zM302.22 33.94h-44.93l-3.09 8.89h48.02v-8.89zM275.56 59.8h26.66v-8.89h-50.83l-2.5 7.18-2.5-7.18h-50.83v8.89h26.66v-8.17l2.87 8.17h47.6l2.87-8.17v8.17zM275.56 67.88h26.67v8.89h-26.67zM275.56 84.85h26.67v8.89h-26.67zM275.56 101.82H320v8.89h-44.44zM275.56 118.79H320v8.89h-44.44zM237.68 25.86l-3.09-8.89h-56.81v8.89h59.9zM231.78 8.89 228.69 0h-50.91v8.89h54z" class="cls-1"/></g></svg>