<?xml version="1.0" encoding="UTF-8"?>
<svg id="Camada_2" data-name="Camada 2" xmlns="http://www.w3.org/2000/svg" xmlns:xlink="http://www.w3.org/1999/xlink" viewBox="0 0 30.46 15.82">
  <defs>
    <style>
      .cls-1 {
        mask: url(#mask);
      }

      .cls-2 {
        fill: url(#Gradiente_sem_nome_59);
      }

      .cls-3 {
        filter: url(#luminosity-invert);
      }
    </style>
    <filter id="luminosity-invert" x="0" y="0" width="30.46" height="15.82" color-interpolation-filters="sRGB" filterUnits="userSpaceOnUse">
      <feColorMatrix result="cm" values="-1 0 0 0 1 0 -1 0 0 1 0 0 -1 0 1 0 0 0 1 0"/>
    </filter>
    <mask id="mask" x="0" y="0" width="30.46" height="15.82" maskUnits="userSpaceOnUse">
      <g class="cls-3">
        <g id="Logo-2" data-name="Logo">
          <path id="_" data-name="/&amp;gt;" d="M13.13,15.82L20.2,0h1.86l-7.07,15.82h-1.86ZM22.04,12.27v-1.93l6.15-2.34v-.16l-8.56-3.38v-1.89l10.83,4.46v1.78l-8.42,3.46Z"/>
          <path id="F" d="M8.87,14.15V1.67h1.83v12.48h-1.83ZM8.87,3.34v-1.67h8.26v1.67h-8.26ZM8.87,9.27v-1.67h6.68v1.67h-6.68Z"/>
          <path id="_-2" data-name="&amp;lt;" d="M8.42,12.26L0,8.8v-1.78l8.42-3.46v1.93L1.92,7.83v.16l6.51,2.34v1.93Z"/>
        </g>
      </g>
    </mask>
    <linearGradient id="Gradiente_sem_nome_59" data-name="Gradiente sem nome 59" x1="0" y1="7.91" x2="30.46" y2="7.91" gradientUnits="userSpaceOnUse">
      <stop offset="0" stop-color="#69006a"/>
      <stop offset="1" stop-color="#1d081d"/>
    </linearGradient>
  </defs>
  <g id="Logo">
    <g class="cls-1">
      <rect id="_F_com_Gradiente" data-name="&amp;lt;F/&amp;gt; com Gradiente" class="cls-2" width="30.46" height="15.82"/>
    </g>
  </g>
</svg>