<?xml version="1.0" encoding="UTF-8"?>
<svg id="Camada_2" data-name="Camada 2" xmlns="http://www.w3.org/2000/svg" xmlns:xlink="http://www.w3.org/1999/xlink" viewBox="0 0 32 32">
  <defs>
    <style>
      .cls-1 {
        fill: #fff;
      }

      .cls-2 {
        fill: url(#Gradiente_sem_nome_102);
      }
    </style>
    <linearGradient id="Gradiente_sem_nome_102" data-name="Gradiente sem nome 102" x1=".37" y1="16" x2="31.63" y2="16" gradientUnits="userSpaceOnUse">
      <stop offset="0" stop-color="#bc13fe"/>
      <stop offset=".62" stop-color="#8b13fe"/>
      <stop offset="1" stop-color="#7213fe"/>
    </linearGradient>
  </defs>
  <g id="Camada_1-2" data-name="Camada 1">
    <circle class="cls-1" cx="16" cy="16" r="16"/>
    <path class="cls-2" d="M14.61,23.49l6.85-15.33h1.47c.18,0,.3.18.22.34l-6.85,15.33h-1.47c-.18,0-.3-.18-.22-.34ZM23.29,20.32v-1.92l6.1-2.32v-.16l-8.48-3.34v-1.87l10.43,4.29c.18.08.3.25.3.45v1.1c0,.2-.12.38-.3.45l-8.04,3.31ZM9.2,22.18v-11.88c0-.27.22-.49.49-.49h1.32v12.12c0,.13-.11.24-.24.24h-1.57ZM9.2,11.47v-1.17c0-.27.22-.49.49-.49h7.7v1.41c0,.13-.11.24-.24.24h-7.94ZM9.2,17.34v-1.65h6.62v1.41c0,.13-.11.24-.24.24h-6.37ZM8.71,20.32L.67,17.01c-.18-.08-.3-.25-.3-.45v-1.1c0-.2.12-.38.3-.45l8.04-3.31v1.92l-6.44,2.32v.16l6.44,2.32v1.92Z"/>
  </g>
</svg>